<!-- Generator: Adobe Illustrator 22.0.0, SVG Export Plug-In  -->
<svg version="1.1"
     xmlns="http://www.w3.org/2000/svg" xmlns:xlink="http://www.w3.org/1999/xlink" xmlns:a="http://ns.adobe.com/AdobeSVGViewerExtensions/3.0/"
     x="0px" y="0px" width="199.7px" height="267.2px" viewBox="0 0 199.7 267.2" style="enable-background:new 0 0 199.7 267.2;"
     xml:space="preserve">
<style type="text/css">
    .st0{fill:#1DAF39;}
    .st1{fill:#01FF30;}
    .st2{fill:#A31153;}
    .st3{fill:#FF0172;}
</style>
<defs>
</defs>
<g>
    <path class="st0" d="M97.3,266L1.2,169.8c-1.6-1.6-1.6-4.1,0-5.7L88.3,77c0.8-0.8,1.2-1.8,1.2-2.8V4c0-2.2,1.8-4,4-4h24
        c2.2,0,4,1.8,4,4v83.5c0,1.1-0.4,2.1-1.2,2.8L43.6,167l76.4,76.4c1.6,1.6,1.6,4.1,0,5.7l-17,17C101.4,267.6,98.9,267.6,97.3,266z"
        />
</g>
<g>
    <path class="st1" d="M1.2,164.2L88.3,77c0.8-0.8,1.2-1.8,1.2-2.8V4c0-2.2,1.8-4,4-4h24c2.2,0,4,1.8,4,4v83.5c0,1.1-0.4,2.1-1.2,2.8
        L43.6,167c-12.1,12.1-11.6,33.5-0.1,45c9.9,9.9-31-30.9-42.3-42.2C-0.4,168.3-0.4,165.7,1.2,164.2z"/>
</g>
<g>
    <path class="st2" d="M129.3,233.4l-17-17c-1.6-1.6-1.6-4.1,0-5.7l43.8-43.8l-43.8-43.8c-1.6-1.6-1.6-4.1,0-5.7l17-17
        c1.6-1.6,4.1-1.6,5.7,0l63.6,63.6c1.6,1.6,1.6,4.1,0,5.7l-63.6,63.6C133.4,234.9,130.8,234.9,129.3,233.4z"/>
</g>
<g>
    <path class="st3" d="M156.1,167c-9.7-9.7-35.2-35.2-43.8-43.8c-1.6-1.6-1.6-4.1,0-5.7l17-17c1.6-1.6,4.1-1.6,5.7,0l63.6,63.6
        c1.6,1.6,1.6,4.1,0,5.6c-11.7,11.8-55.6,55.8-43,43.2C170,198.5,167.8,178.8,156.1,167z"/>
</g>
</svg>