<!-- https://www.w3.org/TR/SVG2/styling.html#LinkElement -->

<!-- https://stackoverflow.com/questions/10963925/svg-and-external-stylesheets -->

<!-- https://stackoverflow.com/a/21503151/6837572 -->


<?xml-stylesheet href="../css/svg.css" type="text/css"?>
<svg xmlns="http://www.w3.org/2000/svg" width="199.7" height="350.2" style="isolation:isolate">
  <defs>
    <clipPath id="a">
      <path d="M0 0h199.7v267.2H0z"/>
    </clipPath>
  </defs>
  <g clip-path="url(#a)">
    <path id="leftShort" fill="#1daf39" d="M95.652266 256.09252L7.105681 167.4538c-1.474241-1.47425-1.474241-3.77775 0-5.25198l80.253981-80.253986c.737116-.737123 1.105678-1.658523 1.105678-2.579924V14.685602C88.46534 12.658521 90.123863 11 92.150942 11h22.113608c2.02708 0 3.6856 1.658521 3.6856 3.685602v76.936937c0 1.013539-.36856 1.934939-1.10567 2.579924L46.173058 164.87387l70.394992 70.39499c1.47424 1.47425 1.47424 3.77775 0 5.252l-15.6638 15.6638c-1.474243 1.3821-3.777745 1.3821-5.251984-.0921z"/>
    <path id="leftLong" fill="#01ff30" d="M7.105681 162.29395l80.253981-80.346116c.737116-.737123 1.105678-1.658523 1.105678-2.579924V14.685602C88.46534 12.658521 90.123863 11 92.150942 11h22.113608c2.02708 0 3.6856 1.658521 3.6856 3.685602v76.936937c0 1.013539-.36856 1.934939-1.10567 2.579924L46.173058 164.87387c-11.148944 11.14895-10.688244 30.86692-.09214 41.46302 9.121866 9.12186-28.563413-28.47126-38.975238-38.88309-1.474241-1.3821-1.474241-3.77775 0-5.15985z" filter="url(#b)"/>
    <defs>
      <filter id="b" width="4" height="4" x="-2" y="-2">
        <feGaussianBlur/>
      </filter>
    </defs>
    <path id ="rightLong" fill="#a31153" d="M125.13708 226.05486l-15.66381-15.66381c-1.47424-1.47423-1.47424-3.77773 0-5.25198l40.35734-40.35734-40.35734-40.35734c-1.47424-1.47424-1.47424-3.77774 0-5.25198l15.66381-15.6638c1.47423-1.47424 3.77773-1.47424 5.25198 0l58.60107 58.60106c1.47424 1.47425 1.47424 3.77775 0 5.25198l-58.60107 58.60108c-1.47425 1.47423-3.86988 1.47423-5.25198.0921z"/>
    <path id="rightShort" fill="#ff0172" d="M149.83061 164.87387c-8.93759-8.93758-32.43329-32.43329-40.35734-40.35734-1.47424-1.47424-1.47424-3.77774 0-5.25198l15.66381-15.6638c1.47423-1.47425 3.77773-1.47425 5.25198 0l58.60107 58.60107c1.47424 1.47423 1.47424 3.77773 0 5.15983-10.78039 10.87253-51.22987 51.41415-39.62022 39.8045 13.26817-13.26816 11.24109-31.41975.4607-42.29228z"/>
  </g>
</svg>
